{"accessors" : [{"bufferView" : 0, "byteOffset" : 0, "componentType" : 5123, "count" : 342, "type" : "SCALAR", "max" : [341], "min" : [0]}, {"bufferView" : 1, "byteOffset" : 0, "componentType" : 5126, "count" : 342, "type" : "VEC3", "max" : [1.7090115547180176, 2.7469615936279297, -27.273540496826172], "min" : [-1.7090120315551758, 0.0029665231704711914, -38.08180618286133], "name" : "POSITION"}, {"bufferView" : 1, "byteOffset" : 12, "componentType" : 5126, "count" : 342, "type" : "VEC3", "max" : [1.0000044107437134, 0.9999655485153198, 0.386013001203537], "min" : [-1.0000044107437134, -0.0023115533404052258, -0.3859975039958954], "name" : "NORMAL"}, {"bufferView" : 1, "byteOffset" : 24, "componentType" : 5126, "count" : 342, "type" : "VEC2", "max" : [1, 0], "min" : [0, -1], "name" : "TEXCOORD_0"}, {"bufferView" : 0, "byteOffset" : 684, "componentType" : 5123, "count" : 342, "type" : "SCALAR", "max" : [341], "min" : [0]}, {"bufferView" : 2, "byteOffset" : 0, "componentType" : 5126, "count" : 342, "type" : "VEC3", "max" : [1.677757740020752, 2.7469615936279297, 27.274181365966797], "min" : [-1.7090120315551758, 0.0029665231704711914, -27.273540496826172], "name" : "POSITION"}, {"bufferView" : 2, "byteOffset" : 12, "componentType" : 5126, "count" : 342, "type" : "VEC3", "max" : [1.0000044107437134, 0.9996858239173889, 1.4685369933431502E-05], "min" : [-1.0000044107437134, 0, -1.4891977116349153E-05], "name" : "NORMAL"}, {"bufferView" : 2, "byteOffset" : 24, "componentType" : 5126, "count" : 342, "type" : "VEC2", "max" : [1, 0], "min" : [-0, -1], "name" : "TEXCOORD_0"}, {"bufferView" : 0, "byteOffset" : 1368, "componentType" : 5123, "count" : 342, "type" : "SCALAR", "max" : [341], "min" : [0]}, {"bufferView" : 3, "byteOffset" : 0, "componentType" : 5126, "count" : 342, "type" : "VEC3", "max" : [1.7090120315551758, 2.7469615936279297, 38.081809997558594], "min" : [-1.7090120315551758, 0.0029665231704711914, 27.274181365966797], "name" : "POSITION"}, {"bufferView" : 3, "byteOffset" : 12, "componentType" : 5126, "count" : 342, "type" : "VEC3", "max" : [1.0000044107437134, 0.9999657273292542, 0.38266849517822266], "min" : [-1.0000044107437134, -0.00031393440440297127, -0.3843202292919159], "name" : "NORMAL"}, {"bufferView" : 3, "byteOffset" : 24, "componentType" : 5126, "count" : 342, "type" : "VEC2", "max" : [1, 0], "min" : [0, -1], "name" : "TEXCOORD_0"}], "asset" : {"generator" : "Aspose.3D 21.8", "version" : "2.0"}, "buffers" : [{"uri" : "data:application/octet-stream;base64,", "byteLength" : 34900}], "bufferViews" : [{"buffer" : 0, "byteOffset" : 0, "byteLength" : 2052, "target" : 34963}, {"buffer" : 0, "byteOffset" : 2056, "byteLength" : 10944, "byteStride" : 32, "target" : 34962}, {"buffer" : 0, "byteOffset" : 13004, "byteLength" : 10944, "byteStride" : 32, "target" : 34962}, {"buffer" : 0, "byteOffset" : 23952, "byteLength" : 10944, "byteStride" : 32, "target" : 34962}], "images" : [{"uri" : "data:application/octet-stream;base64,"}], "materials" : [{"name" : "", "pbrMetallicRoughness" : {"baseColorFactor" : [1, 1, 1, 1], "baseColorTexture" : {"index" : 0, "texCoord" : 0}, "metallicFactor" : 0, "roughnessFactor" : 0}, "emissiveFactor" : [0, 0, 0], "alphaMode" : "OPAQUE", "doubleSided" : false}, {"name" : "", "pbrMetallicRoughness" : {"baseColorFactor" : [1, 1, 1, 1], "baseColorTexture" : {"index" : 0, "texCoord" : 0}, "metallicFactor" : 0, "roughnessFactor" : 0}, "emissiveFactor" : [0, 0, 0], "alphaMode" : "OPAQUE", "doubleSided" : false}, {"name" : "", "pbrMetallicRoughness" : {"baseColorFactor" : [1, 1, 1, 1], "baseColorTexture" : {"index" : 0, "texCoord" : 0}, "metallicFactor" : 0, "roughnessFactor" : 0}, "emissiveFactor" : [0, 0, 0], "alphaMode" : "OPAQUE", "doubleSided" : false}], "meshes" : [{"primitives" : [{"attributes" : {"POSITION" : 1, "NORMAL" : 2, "TEXCOORD_0" : 3}, "indices" : 0, "material" : 0, "mode" : 4}], "name" : ""}, {"primitives" : [{"attributes" : {"POSITION" : 5, "NORMAL" : 6, "TEXCOORD_0" : 7}, "indices" : 4, "material" : 1, "mode" : 4}], "name" : ""}, {"primitives" : [{"attributes" : {"POSITION" : 9, "NORMAL" : 10, "TEXCOORD_0" : 11}, "indices" : 8, "material" : 2, "mode" : 4}], "name" : ""}], "nodes" : [{"mesh" : 0, "name" : "polySurface4"}, {"mesh" : 1, "name" : "polySurface3"}, {"mesh" : 2, "name" : "polySurface2"}, {"children" : [0, 1, 2], "matrix" : [0.3937007874015747, 0, 0, 0, 0, 0.3937007874015747, 0, 0, 0, 0, 0.3937007874015747, 0, 0, 0, 0, 1], "name" : "Export"}], "samplers" : [{"magFilter" : 9729, "minFilter" : 9729, "wrapS" : 10497, "wrapT" : 10497}], "scene" : 0, "scenes" : [{"nodes" : [3]}], "textures" : [{"sampler" : 0, "source" : 0}]}