{
  "accessors": [
    {
      "name": "Box004_1_0_positions",
      "componentType": 5126,
      "count": 8448,
      "min": [
        -33.31014633178711,
        0.10463599860668182,
        -14.165189743041992
      ],
      "max": [
        33.31014633178711,
        9.673197746276855,
        14.165189743041992
      ],
      "type": "VEC3",
      "bufferView": 0,
      "byteOffset": 0
    },
    {
      "name": "Box004_1_0_normals",
      "componentType": 5126,
      "count": 8448,
      "min": [
        -0.9008548855781555,
        -1,
        -0.8659846186637878
      ],
      "max": [
        0.9008552432060242,
        -0.43380412459373474,
        0.8660409450531006
      ],
      "type": "VEC3",
      "bufferView": 1,
      "byteOffset": 0
    },
    {
      "name": "Box004_1_0_texcoords",
      "componentType": 5126,
      "count": 8448,
      "min": [
        0.01524799969047308,
        0.30148398876190186
      ],
      "max": [
        0.9767860174179077,
        0.6985160112380981
      ],
      "type": "VEC2",
      "bufferView": 2,
      "byteOffset": 0
    },
    {
      "name": "Box004_1_0_indices",
      "componentType": 5123,
      "count": 12672,
      "min": [
        0
      ],
      "max": [
        8447
      ],
      "type": "SCALAR",
      "bufferView": 3,
      "byteOffset": 0
    },
    {
      "name": "Box004_1_1_positions",
      "componentType": 5126,
      "count": 8448,
      "min": [
        -33.31014633178711,
        1.0034010410308838,
        -14.165189743041992
      ],
      "max": [
        33.31014633178711,
        10.476655960083008,
        14.165189743041992
      ],
      "type": "VEC3",
      "bufferView": 0,
      "byteOffset": 101376
    },
    {
      "name": "Box004_1_1_normals",
      "componentType": 5126,
      "count": 8448,
      "min": [
        -0.9070959091186523,
        0.41963693499565125,
        -0.8656549453735352
      ],
      "max": [
        0.9071228504180908,
        1,
        0.866061270236969
      ],
      "type": "VEC3",
      "bufferView": 1,
      "byteOffset": 101376
    },
    {
      "name": "Box004_1_1_texcoords",
      "componentType": 5126,
      "count": 8448,
      "min": [
        0.01524799969047308,
        0.30148398876190186
      ],
      "max": [
        0.9767860174179077,
        0.6985160112380981
      ],
      "type": "VEC2",
      "bufferView": 2,
      "byteOffset": 67584
    },
    {
      "name": "Box004_1_1_indices",
      "componentType": 5123,
      "count": 12672,
      "min": [
        0
      ],
      "max": [
        8447
      ],
      "type": "SCALAR",
      "bufferView": 3,
      "byteOffset": 25344
    },
    {
      "name": "Box005_1_0_positions",
      "componentType": 5126,
      "count": 9472,
      "min": [
        -33.565147399902344,
        1.9069900512695312,
        -14.436358451843262
      ],
      "max": [
        33.565147399902344,
        10.431529998779297,
        14.436358451843262
      ],
      "type": "VEC3",
      "bufferView": 0,
      "byteOffset": 202752
    },
    {
      "name": "Box005_1_0_normals",
      "componentType": 5126,
      "count": 9472,
      "min": [
        -1,
        -0.8879836201667786,
        -0.9999993443489075
      ],
      "max": [
        1,
        0.8912484049797058,
        0.9999993443489075
      ],
      "type": "VEC3",
      "bufferView": 1,
      "byteOffset": 202752
    },
    {
      "name": "Box005_1_0_texcoords",
      "componentType": 5126,
      "count": 9472,
      "min": [
        -0.02363000065088272,
        0.283037006855011
      ],
      "max": [
        1.0156010389328003,
        0.716962993144989
      ],
      "type": "VEC2",
      "bufferView": 2,
      "byteOffset": 135168
    },
    {
      "name": "Box005_1_0_indices",
      "componentType": 5123,
      "count": 14208,
      "min": [
        0
      ],
      "max": [
        9471
      ],
      "type": "SCALAR",
      "bufferView": 3,
      "byteOffset": 50688
    }
  ],
  "asset": {
    "generator": "obj2gltf",
    "version": "2.0"
  },
  "buffers": [
    {
      "name": "simplyfitgreen",
      "byteLength": 2653096,
      "uri": "data:application/octet-stream;base64,"
    }
  ],
  "bufferViews": [
    {
      "name": "bufferView_0",
      "buffer": 0,
      "byteLength": 316416,
      "byteOffset": 0,
      "byteStride": 12,
      "target": 34962
    },
    {
      "name": "bufferView_1",
      "buffer": 0,
      "byteLength": 316416,
      "byteOffset": 316416,
      "byteStride": 12,
      "target": 34962
    },
    {
      "name": "bufferView_2",
      "buffer": 0,
      "byteLength": 210944,
      "byteOffset": 632832,
      "byteStride": 8,
      "target": 34962
    },
    {
      "name": "bufferView_3",
      "buffer": 0,
      "byteLength": 79104,
      "byteOffset": 843776,
      "target": 34963
    },
    {
      "buffer": 0,
      "byteOffset": 922880,
      "byteLength": 1730215
    }
  ],
  "images": [
    {
      "name": "NormalMap005",
      "mimeType": "image/jpeg",
      "bufferView": 4
    }
  ],
  "materials": [
    {
      "name": "TXT03",
      "pbrMetallicRoughness": {
        "baseColorFactor": [
          0.094118,
          0.811765,
          0.094118,
          1
        ],
        "metallicFactor": 0,
        "roughnessFactor": 0.990000001
      },
      "emissiveFactor": [
        0,
        0,
        0
      ],
      "alphaMode": "OPAQUE",
      "doubleSided": false
    },
    {
      "name": "TXT01",
      "pbrMetallicRoughness": {
        "baseColorFactor": [
          0.094118,
          0.811765,
          0.094118,
          1
        ],
        "metallicFactor": 0,
        "roughnessFactor": 0.990000001
      },
      "normalTexture": {
        "index": 0
      },
      "emissiveFactor": [
        0,
        0,
        0
      ],
      "alphaMode": "OPAQUE",
      "doubleSided": false
    },
    {
      "name": "TXT022",
      "pbrMetallicRoughness": {
        "baseColorFactor": [
          0.094118,
          0.811765,
          0.094118,
          1
        ],
        "metallicFactor": 0,
        "roughnessFactor": 0.980000002
      },
      "normalTexture": {
        "index": 0
      },
      "emissiveFactor": [
        0,
        0,
        0
      ],
      "alphaMode": "OPAQUE",
      "doubleSided": false
    }
  ],
  "meshes": [
    {
      "name": "Box004_1",
      "primitives": [
        {
          "attributes": {
            "POSITION": 0,
            "NORMAL": 1,
            "TEXCOORD_0": 2
          },
          "indices": 3,
          "material": 0,
          "mode": 4
        },
        {
          "attributes": {
            "POSITION": 4,
            "NORMAL": 5,
            "TEXCOORD_0": 6
          },
          "indices": 7,
          "material": 1,
          "mode": 4
        }
      ]
    },
    {
      "name": "Box005_1",
      "primitives": [
        {
          "attributes": {
            "POSITION": 8,
            "NORMAL": 9,
            "TEXCOORD_0": 10
          },
          "indices": 11,
          "material": 2,
          "mode": 4
        }
      ]
    }
  ],
  "nodes": [
    {
      "name": "Box004",
      "mesh": 0
    },
    {
      "name": "Box005",
      "mesh": 1
    }
  ],
  "samplers": [
    {
      "magFilter": 9729,
      "minFilter": 9986,
      "wrapS": 10497,
      "wrapT": 10497
    }
  ],
  "scene": 0,
  "scenes": [
    {
      "nodes": [
        0,
        1
      ]
    }
  ],
  "textures": [
    {
      "name": "NormalMap005",
      "sampler": 0,
      "source": 0
    }
  ]
}
