{
  "accessors": [
    {
      "name": "Mr_Brown_London_Bergamo_Wall_Lamp_1_0_positions",
      "componentType": 5126,
      "count": 6002,
      "min": [
        -4.401700019836426,
        -97.9186019897461,
        -15.97599983215332
      ],
      "max": [
        4.401700019836426,
        0,
        15
      ],
      "type": "VEC3",
      "bufferView": 0,
      "byteOffset": 0
    },
    {
      "name": "Mr_Brown_London_Bergamo_Wall_Lamp_1_0_normals",
      "componentType": 5126,
      "count": 6002,
      "min": [
        -1,
        -1,
        -1
      ],
      "max": [
        1,
        1,
        1
      ],
      "type": "VEC3",
      "bufferView": 1,
      "byteOffset": 0
    },
    {
      "name": "Mr_Brown_London_Bergamo_Wall_Lamp_1_0_texcoords",
      "componentType": 5126,
      "count": 6002,
      "min": [
        -0.833899974822998,
        -0.840399980545044
      ],
      "max": [
        1.9947999715805054,
        1.8680000305175781
      ],
      "type": "VEC2",
      "bufferView": 2,
      "byteOffset": 0
    },
    {
      "name": "Mr_Brown_London_Bergamo_Wall_Lamp_1_0_indices",
      "componentType": 5123,
      "count": 22113,
      "min": [
        0
      ],
      "max": [
        6001
      ],
      "type": "SCALAR",
      "bufferView": 3,
      "byteOffset": 0
    },
    {
      "name": "Mr_Brown_London_Bergamo_Wall_Lamp_1_1_positions",
      "componentType": 5126,
      "count": 3324,
      "min": [
        -13.506699562072754,
        -107.02369689941406,
        -16.98080062866211
      ],
      "max": [
        13.506799697875977,
        -80.01020050048828,
        19.039199829101562
      ],
      "type": "VEC3",
      "bufferView": 0,
      "byteOffset": 72024
    },
    {
      "name": "Mr_Brown_London_Bergamo_Wall_Lamp_1_1_normals",
      "componentType": 5126,
      "count": 3324,
      "min": [
        -1,
        -1,
        -1
      ],
      "max": [
        1,
        1,
        0.9980885982513428
      ],
      "type": "VEC3",
      "bufferView": 1,
      "byteOffset": 72024
    },
    {
      "name": "Mr_Brown_London_Bergamo_Wall_Lamp_1_1_texcoords",
      "componentType": 5126,
      "count": 3324,
      "min": [
        -5.097799777984619,
        -14.539199829101562
      ],
      "max": [
        21.915700912475586,
        21.48069953918457
      ],
      "type": "VEC2",
      "bufferView": 2,
      "byteOffset": 48016
    },
    {
      "name": "Mr_Brown_London_Bergamo_Wall_Lamp_1_1_indices",
      "componentType": 5123,
      "count": 13926,
      "min": [
        0
      ],
      "max": [
        3323
      ],
      "type": "SCALAR",
      "bufferView": 3,
      "byteOffset": 44228
    },
    {
      "name": "Mr_Brown_London_Bergamo_Wall_Lamp_1_2_positions",
      "componentType": 5126,
      "count": 1964,
      "min": [
        -13.228099822998047,
        -106.74500274658203,
        -16.81839942932129
      ],
      "max": [
        13.228099822998047,
        -80.28890228271484,
        18.962499618530273
      ],
      "type": "VEC3",
      "bufferView": 0,
      "byteOffset": 111912
    },
    {
      "name": "Mr_Brown_London_Bergamo_Wall_Lamp_1_2_normals",
      "componentType": 5126,
      "count": 1964,
      "min": [
        -1,
        -1,
        -0.3697175681591034
      ],
      "max": [
        1,
        1,
        0.371918648481369
      ],
      "type": "VEC3",
      "bufferView": 1,
      "byteOffset": 111912
    },
    {
      "name": "Mr_Brown_London_Bergamo_Wall_Lamp_1_2_texcoords",
      "componentType": 5126,
      "count": 1964,
      "min": [
        -4.8190999031066895,
        -14.462599754333496
      ],
      "max": [
        21.636999130249023,
        21.318300247192383
      ],
      "type": "VEC2",
      "bufferView": 2,
      "byteOffset": 74608
    },
    {
      "name": "Mr_Brown_London_Bergamo_Wall_Lamp_1_2_indices",
      "componentType": 5123,
      "count": 8406,
      "min": [
        0
      ],
      "max": [
        1963
      ],
      "type": "SCALAR",
      "bufferView": 3,
      "byteOffset": 72080
    },
    {
      "name": "Mr_Brown_London_Bergamo_Wall_Lamp_1_3_positions",
      "componentType": 5126,
      "count": 461,
      "min": [
        -2,
        -97.52559661865234,
        2.50819993019104
      ],
      "max": [
        2,
        -91.51689910888672,
        8.758199691772461
      ],
      "type": "VEC3",
      "bufferView": 0,
      "byteOffset": 135480
    },
    {
      "name": "Mr_Brown_London_Bergamo_Wall_Lamp_1_3_normals",
      "componentType": 5126,
      "count": 461,
      "min": [
        -1,
        -1,
        -1
      ],
      "max": [
        1,
        1,
        1
      ],
      "type": "VEC3",
      "bufferView": 1,
      "byteOffset": 135480
    },
    {
      "name": "Mr_Brown_London_Bergamo_Wall_Lamp_1_3_texcoords",
      "componentType": 5126,
      "count": 461,
      "min": [
        0,
        0
      ],
      "max": [
        1.0312999486923218,
        1
      ],
      "type": "VEC2",
      "bufferView": 2,
      "byteOffset": 90320
    },
    {
      "name": "Mr_Brown_London_Bergamo_Wall_Lamp_1_3_indices",
      "componentType": 5123,
      "count": 2106,
      "min": [
        0
      ],
      "max": [
        460
      ],
      "type": "SCALAR",
      "bufferView": 3,
      "byteOffset": 88892
    },
    {
      "name": "Mr_Brown_London_Bergamo_Wall_Lamp_1_4_positions",
      "componentType": 5126,
      "count": 4844,
      "min": [
        -2.8361001014709473,
        -97.52559661865234,
        -4.196000099182129
      ],
      "max": [
        2.8361001014709473,
        -89.52559661865234,
        8.758199691772461
      ],
      "type": "VEC3",
      "bufferView": 0,
      "byteOffset": 141012
    },
    {
      "name": "Mr_Brown_London_Bergamo_Wall_Lamp_1_4_normals",
      "componentType": 5126,
      "count": 4844,
      "min": [
        -1,
        -1,
        -1
      ],
      "max": [
        1,
        1,
        1
      ],
      "type": "VEC3",
      "bufferView": 1,
      "byteOffset": 141012
    },
    {
      "name": "Mr_Brown_London_Bergamo_Wall_Lamp_1_4_texcoords",
      "componentType": 5126,
      "count": 4844,
      "min": [
        -5.049600124359131,
        -4.049600124359131
      ],
      "max": [
        5.049600124359131,
        6.049600124359131
      ],
      "type": "VEC2",
      "bufferView": 2,
      "byteOffset": 94008
    },
    {
      "name": "Mr_Brown_London_Bergamo_Wall_Lamp_1_4_indices",
      "componentType": 5123,
      "count": 26562,
      "min": [
        0
      ],
      "max": [
        4843
      ],
      "type": "SCALAR",
      "bufferView": 3,
      "byteOffset": 93104
    },
    {
      "name": "Mr_Brown_London_Bergamo_Wall_Lamp_1_5_positions",
      "componentType": 5126,
      "count": 252,
      "min": [
        -0.9940999746322632,
        -93.54499816894531,
        0.12849999964237213
      ],
      "max": [
        0.9941999912261963,
        -89.52559661865234,
        8.758199691772461
      ],
      "type": "VEC3",
      "bufferView": 0,
      "byteOffset": 199140
    },
    {
      "name": "Mr_Brown_London_Bergamo_Wall_Lamp_1_5_normals",
      "componentType": 5126,
      "count": 252,
      "min": [
        -1,
        -1,
        -1
      ],
      "max": [
        1,
        1,
        1
      ],
      "type": "VEC3",
      "bufferView": 1,
      "byteOffset": 199140
    },
    {
      "name": "Mr_Brown_London_Bergamo_Wall_Lamp_1_5_texcoords",
      "componentType": 5126,
      "count": 252,
      "min": [
        -1.0800000429153442,
        -3.0401999950408936
      ],
      "max": [
        1,
        5.040200233459473
      ],
      "type": "VEC2",
      "bufferView": 2,
      "byteOffset": 132760
    },
    {
      "name": "Mr_Brown_London_Bergamo_Wall_Lamp_1_5_indices",
      "componentType": 5123,
      "count": 438,
      "min": [
        0
      ],
      "max": [
        251
      ],
      "type": "SCALAR",
      "bufferView": 3,
      "byteOffset": 146228
    }
  ],
  "asset": {
    "generator": "obj2gltf",
    "version": "2.0"
  },
  "buffers": [
    {
      "name": "Mr_Brown_London_Bergamo_Wall_Lamp",
      "byteLength": 686208,
      "uri": "data:application/octet-stream;base64,"
    }
  ],
  "bufferViews": [
    {
      "name": "bufferView_0",
      "buffer": 0,
      "byteLength": 202164,
      "byteOffset": 0,
      "byteStride": 12,
      "target": 34962
    },
    {
      "name": "bufferView_1",
      "buffer": 0,
      "byteLength": 202164,
      "byteOffset": 202164,
      "byteStride": 12,
      "target": 34962
    },
    {
      "name": "bufferView_2",
      "buffer": 0,
      "byteLength": 134776,
      "byteOffset": 404328,
      "byteStride": 8,
      "target": 34962
    },
    {
      "name": "bufferView_3",
      "buffer": 0,
      "byteLength": 147104,
      "byteOffset": 539104,
      "target": 34963
    }
  ],
  "materials": [
    {
      "name": "Mr_Brown_London_Bergamo_Wall_Lamp_mtl_1",
      "pbrMetallicRoughness": {
        "baseColorFactor": [
          0.1569,
          0.1333,
          0.1098,
          1
        ],
        "metallicFactor": 0,
        "roughnessFactor": 0.99
      },
      "emissiveFactor": [
        0,
        0,
        0
      ],
      "alphaMode": "OPAQUE",
      "doubleSided": false
    },
    {
      "name": "Mr_Brown_London_Bergamo_Wall_Lamp_mtl_2",
      "pbrMetallicRoughness": {
        "baseColorFactor": [
          0.0275,
          0.0275,
          0.0275,
          1
        ],
        "metallicFactor": 0,
        "roughnessFactor": 0.99
      },
      "emissiveFactor": [
        0,
        0,
        0
      ],
      "alphaMode": "OPAQUE",
      "doubleSided": false
    },
    {
      "name": "Mr_Brown_London_Bergamo_Wall_Lamp_mtl_3",
      "pbrMetallicRoughness": {
        "baseColorFactor": [
          1,
          1,
          1,
          1
        ],
        "metallicFactor": 0,
        "roughnessFactor": 0.99
      },
      "emissiveFactor": [
        0,
        0,
        0
      ],
      "alphaMode": "OPAQUE",
      "doubleSided": false
    },
    {
      "name": "Mr_Brown_London_Bergamo_Wall_Lamp_mtl_5",
      "pbrMetallicRoughness": {
        "baseColorFactor": [
          0,
          0,
          0,
          1
        ],
        "metallicFactor": 0,
        "roughnessFactor": 0.99
      },
      "emissiveFactor": [
        0,
        0,
        0
      ],
      "alphaMode": "OPAQUE",
      "doubleSided": false
    },
    {
      "name": "Mr_Brown_London_Bergamo_Wall_Lamp_mtl_4",
      "pbrMetallicRoughness": {
        "baseColorFactor": [
          0,
          0,
          0,
          0.01959999999999995
        ],
        "metallicFactor": 0,
        "roughnessFactor": 0.99
      },
      "emissiveFactor": [
        0,
        0,
        0
      ],
      "alphaMode": "BLEND",
      "doubleSided": true
    },
    {
      "name": "Mr_Brown_London_Bergamo_Wall_Lamp_mtl_6",
      "pbrMetallicRoughness": {
        "baseColorFactor": [
          0.5176,
          0.3294,
          0.0314,
          1
        ],
        "metallicFactor": 0,
        "roughnessFactor": 0.99
      },
      "emissiveFactor": [
        0,
        0,
        0
      ],
      "alphaMode": "OPAQUE",
      "doubleSided": false
    }
  ],
  "meshes": [
    {
      "name": "Mr_Brown_London_Bergamo_Wall_Lamp_1",
      "primitives": [
        {
          "attributes": {
            "POSITION": 0,
            "NORMAL": 1,
            "TEXCOORD_0": 2
          },
          "indices": 3,
          "material": 0,
          "mode": 4
        },
        {
          "attributes": {
            "POSITION": 4,
            "NORMAL": 5,
            "TEXCOORD_0": 6
          },
          "indices": 7,
          "material": 1,
          "mode": 4
        },
        {
          "attributes": {
            "POSITION": 8,
            "NORMAL": 9,
            "TEXCOORD_0": 10
          },
          "indices": 11,
          "material": 2,
          "mode": 4
        },
        {
          "attributes": {
            "POSITION": 12,
            "NORMAL": 13,
            "TEXCOORD_0": 14
          },
          "indices": 15,
          "material": 3,
          "mode": 4
        },
        {
          "attributes": {
            "POSITION": 16,
            "NORMAL": 17,
            "TEXCOORD_0": 18
          },
          "indices": 19,
          "material": 4,
          "mode": 4
        },
        {
          "attributes": {
            "POSITION": 20,
            "NORMAL": 21,
            "TEXCOORD_0": 22
          },
          "indices": 23,
          "material": 5,
          "mode": 4
        }
      ]
    }
  ],
  "nodes": [
    {
      "name": "Mr_Brown_London_Bergamo_Wall_Lamp",
      "mesh": 0
    }
  ],
  "scene": 0,
  "scenes": [
    {
      "nodes": [
        0
      ]
    }
  ]
}
