{
    "asset" : {
        "generator" : "Khronos glTF Blender I/O v1.2.75",
        "version" : "2.0"
    },
    "scene" : 0,
    "scenes" : [
        {
            "name" : "Scene",
            "nodes" : [
                0,
                1,
                2
            ]
        }
    ],
    "nodes" : [
        {
            "name" : "Light",
            "rotation" : [
                0.16907575726509094,
                0.7558803558349609,
                -0.27217137813568115,
                0.570947527885437
            ],
            "translation" : [
                4.076245307922363,
                5.903861999511719,
                -1.0054539442062378
            ]
        },
        {
            "name" : "Camera",
            "rotation" : [
                0.17263276875019073,
                0.7574769258499146,
                -0.5428817868232727,
                0.3189137578010559
            ],
            "translation" : [
                8.14637279510498,
                2.2377021312713623,
                -13.855978965759277
            ]
        },
        {
            "mesh" : 0,
            "name" : "lamp1",
            "rotation" : [
                -0.012267043814063072,
                0,
                0,
                0.9999247789382935
            ],
            "scale" : [
                0.08341807126998901,
                0.08341807872056961,
                0.08341807126998901
            ]
        }
    ],
    "materials" : [
        {
            "doubleSided" : true,
            "emissiveFactor" : [
                0,
                0,
                0
            ],
            "name" : "Mr_Brown_London_Bergamo_Wall_Lamp_mtl_1",
            "pbrMetallicRoughness" : {
                "baseColorFactor" : [
                    0.15690000355243683,
                    0.13330000638961792,
                    0.10980000346899033,
                    1
                ],
                "metallicFactor" : 0,
                "roughnessFactor" : 0.8945907354354858
            }
        },
        {
            "doubleSided" : true,
            "emissiveFactor" : [
                0,
                0,
                0
            ],
            "name" : "Mr_Brown_London_Bergamo_Wall_Lamp_mtl_2",
            "pbrMetallicRoughness" : {
                "baseColorFactor" : [
                    0.027499999850988388,
                    0.027499999850988388,
                    0.027499999850988388,
                    1
                ],
                "metallicFactor" : 0,
                "roughnessFactor" : 0.8945907354354858
            }
        },
        {
            "doubleSided" : true,
            "emissiveFactor" : [
                0,
                0,
                0
            ],
            "name" : "Mr_Brown_London_Bergamo_Wall_Lamp_mtl_3",
            "pbrMetallicRoughness" : {
                "baseColorFactor" : [
                    1,
                    1,
                    1,
                    1
                ],
                "metallicFactor" : 0,
                "roughnessFactor" : 0.8945907354354858
            }
        },
        {
            "doubleSided" : true,
            "emissiveFactor" : [
                0,
                0,
                0
            ],
            "name" : "Mr_Brown_London_Bergamo_Wall_Lamp_mtl_5",
            "pbrMetallicRoughness" : {
                "baseColorFactor" : [
                    0,
                    0,
                    0,
                    1
                ],
                "metallicFactor" : 0,
                "roughnessFactor" : 0.8945907354354858
            }
        },
        {
            "doubleSided" : true,
            "emissiveFactor" : [
                0,
                0,
                0
            ],
            "name" : "Mr_Brown_London_Bergamo_Wall_Lamp_mtl_4",
            "pbrMetallicRoughness" : {
                "baseColorFactor" : [
                    0,
                    0,
                    0,
                    1
                ],
                "metallicFactor" : 0,
                "roughnessFactor" : 0.8945907354354858
            }
        },
        {
            "doubleSided" : true,
            "emissiveFactor" : [
                0,
                0,
                0
            ],
            "name" : "Mr_Brown_London_Bergamo_Wall_Lamp_mtl_6",
            "pbrMetallicRoughness" : {
                "baseColorFactor" : [
                    0.5175999999046326,
                    0.3294000029563904,
                    0.03139999881386757,
                    1
                ],
                "metallicFactor" : 0,
                "roughnessFactor" : 0.8945907354354858
            }
        }
    ],
    "meshes" : [
        {
            "name" : "lamp1",
            "primitives" : [
                {
                    "attributes" : {
                        "POSITION" : 0,
                        "NORMAL" : 1,
                        "TEXCOORD_0" : 2
                    },
                    "indices" : 3,
                    "material" : 0
                },
                {
                    "attributes" : {
                        "POSITION" : 4,
                        "NORMAL" : 5,
                        "TEXCOORD_0" : 6
                    },
                    "indices" : 7,
                    "material" : 1
                },
                {
                    "attributes" : {
                        "POSITION" : 8,
                        "NORMAL" : 9,
                        "TEXCOORD_0" : 10
                    },
                    "indices" : 11,
                    "material" : 2
                },
                {
                    "attributes" : {
                        "POSITION" : 12,
                        "NORMAL" : 13,
                        "TEXCOORD_0" : 14
                    },
                    "indices" : 15,
                    "material" : 3
                },
                {
                    "attributes" : {
                        "POSITION" : 16,
                        "NORMAL" : 17,
                        "TEXCOORD_0" : 18
                    },
                    "indices" : 19,
                    "material" : 4
                },
                {
                    "attributes" : {
                        "POSITION" : 20,
                        "NORMAL" : 21,
                        "TEXCOORD_0" : 22
                    },
                    "indices" : 23,
                    "material" : 5
                }
            ]
        }
    ],
    "accessors" : [
        {
            "bufferView" : 0,
            "componentType" : 5126,
            "count" : 6144,
            "max" : [
                4.401700019836426,
                15,
                97.9186019897461
            ],
            "min" : [
                -4.401700019836426,
                -15.97599983215332,
                0
            ],
            "type" : "VEC3"
        },
        {
            "bufferView" : 1,
            "componentType" : 5126,
            "count" : 6144,
            "type" : "VEC3"
        },
        {
            "bufferView" : 2,
            "componentType" : 5126,
            "count" : 6144,
            "type" : "VEC2"
        },
        {
            "bufferView" : 3,
            "componentType" : 5123,
            "count" : 22116,
            "type" : "SCALAR"
        },
        {
            "bufferView" : 4,
            "componentType" : 5126,
            "count" : 2692,
            "max" : [
                13.506799697875977,
                19.039199829101562,
                107.02369689941406
            ],
            "min" : [
                -13.506699562072754,
                -16.98080062866211,
                80.01020050048828
            ],
            "type" : "VEC3"
        },
        {
            "bufferView" : 5,
            "componentType" : 5126,
            "count" : 2692,
            "type" : "VEC3"
        },
        {
            "bufferView" : 6,
            "componentType" : 5126,
            "count" : 2692,
            "type" : "VEC2"
        },
        {
            "bufferView" : 7,
            "componentType" : 5123,
            "count" : 13926,
            "type" : "SCALAR"
        },
        {
            "bufferView" : 8,
            "componentType" : 5126,
            "count" : 1516,
            "max" : [
                13.228099822998047,
                18.962499618530273,
                106.74500274658203
            ],
            "min" : [
                -13.228099822998047,
                -16.81839942932129,
                80.28890228271484
            ],
            "type" : "VEC3"
        },
        {
            "bufferView" : 9,
            "componentType" : 5126,
            "count" : 1516,
            "type" : "VEC3"
        },
        {
            "bufferView" : 10,
            "componentType" : 5126,
            "count" : 1516,
            "type" : "VEC2"
        },
        {
            "bufferView" : 11,
            "componentType" : 5123,
            "count" : 8406,
            "type" : "SCALAR"
        },
        {
            "bufferView" : 12,
            "componentType" : 5126,
            "count" : 545,
            "max" : [
                2,
                8.758199691772461,
                97.52559661865234
            ],
            "min" : [
                -2,
                2.50819993019104,
                91.51689910888672
            ],
            "type" : "VEC3"
        },
        {
            "bufferView" : 13,
            "componentType" : 5126,
            "count" : 545,
            "type" : "VEC3"
        },
        {
            "bufferView" : 14,
            "componentType" : 5126,
            "count" : 545,
            "type" : "VEC2"
        },
        {
            "bufferView" : 15,
            "componentType" : 5123,
            "count" : 2106,
            "type" : "SCALAR"
        },
        {
            "bufferView" : 16,
            "componentType" : 5126,
            "count" : 5171,
            "max" : [
                2.8361001014709473,
                8.758199691772461,
                97.52559661865234
            ],
            "min" : [
                -2.8361001014709473,
                -4.196000099182129,
                89.52559661865234
            ],
            "type" : "VEC3"
        },
        {
            "bufferView" : 17,
            "componentType" : 5126,
            "count" : 5171,
            "type" : "VEC3"
        },
        {
            "bufferView" : 18,
            "componentType" : 5126,
            "count" : 5171,
            "type" : "VEC2"
        },
        {
            "bufferView" : 19,
            "componentType" : 5123,
            "count" : 26562,
            "type" : "SCALAR"
        },
        {
            "bufferView" : 20,
            "componentType" : 5126,
            "count" : 252,
            "max" : [
                0.9941999912261963,
                8.758199691772461,
                93.54499816894531
            ],
            "min" : [
                -0.9940999746322632,
                0.12849999964237213,
                89.52559661865234
            ],
            "type" : "VEC3"
        },
        {
            "bufferView" : 21,
            "componentType" : 5126,
            "count" : 252,
            "type" : "VEC3"
        },
        {
            "bufferView" : 22,
            "componentType" : 5126,
            "count" : 252,
            "type" : "VEC2"
        },
        {
            "bufferView" : 23,
            "componentType" : 5123,
            "count" : 438,
            "type" : "SCALAR"
        }
    ],
    "bufferViews" : [
        {
            "buffer" : 0,
            "byteLength" : 73728,
            "byteOffset" : 0
        },
        {
            "buffer" : 0,
            "byteLength" : 73728,
            "byteOffset" : 73728
        },
        {
            "buffer" : 0,
            "byteLength" : 49152,
            "byteOffset" : 147456
        },
        {
            "buffer" : 0,
            "byteLength" : 44232,
            "byteOffset" : 196608
        },
        {
            "buffer" : 0,
            "byteLength" : 32304,
            "byteOffset" : 240840
        },
        {
            "buffer" : 0,
            "byteLength" : 32304,
            "byteOffset" : 273144
        },
        {
            "buffer" : 0,
            "byteLength" : 21536,
            "byteOffset" : 305448
        },
        {
            "buffer" : 0,
            "byteLength" : 27852,
            "byteOffset" : 326984
        },
        {
            "buffer" : 0,
            "byteLength" : 18192,
            "byteOffset" : 354836
        },
        {
            "buffer" : 0,
            "byteLength" : 18192,
            "byteOffset" : 373028
        },
        {
            "buffer" : 0,
            "byteLength" : 12128,
            "byteOffset" : 391220
        },
        {
            "buffer" : 0,
            "byteLength" : 16812,
            "byteOffset" : 403348
        },
        {
            "buffer" : 0,
            "byteLength" : 6540,
            "byteOffset" : 420160
        },
        {
            "buffer" : 0,
            "byteLength" : 6540,
            "byteOffset" : 426700
        },
        {
            "buffer" : 0,
            "byteLength" : 4360,
            "byteOffset" : 433240
        },
        {
            "buffer" : 0,
            "byteLength" : 4212,
            "byteOffset" : 437600
        },
        {
            "buffer" : 0,
            "byteLength" : 62052,
            "byteOffset" : 441812
        },
        {
            "buffer" : 0,
            "byteLength" : 62052,
            "byteOffset" : 503864
        },
        {
            "buffer" : 0,
            "byteLength" : 41368,
            "byteOffset" : 565916
        },
        {
            "buffer" : 0,
            "byteLength" : 53124,
            "byteOffset" : 607284
        },
        {
            "buffer" : 0,
            "byteLength" : 3024,
            "byteOffset" : 660408
        },
        {
            "buffer" : 0,
            "byteLength" : 3024,
            "byteOffset" : 663432
        },
        {
            "buffer" : 0,
            "byteLength" : 2016,
            "byteOffset" : 666456
        },
        {
            "buffer" : 0,
            "byteLength" : 876,
            "byteOffset" : 668472
        }
    ],
    "buffers" : [
        {
            "byteLength" : 669348,
            "uri" : "data:application/octet-stream;base64,"
        }
    ]
}
