<?xml version="1.0" encoding="UTF-8"?>
<svg width="38px" height="38px" viewBox="0 0 38 38" version="1.1" xmlns="http://www.w3.org/2000/svg" xmlns:xlink="http://www.w3.org/1999/xlink">
    <!-- Generator: Sketch 58 (84663) - https://sketch.com -->
    <title>Combined Shape</title>
    <desc>Created with Sketch.</desc>
    <g id="Page-1" stroke="none" stroke-width="1" fill="none" fill-rule="evenodd">
        <g id="375-copy-2" transform="translate(-180.000000, -313.000000)" fill="#F96302">
            <path d="M194.9897,313 C198.863707,313 202.487662,314.49981 205.18932,317.221822 C207.89279,319.943833 209.353244,323.567173 209.304321,327.424858 C209.271705,330.184725 208.461751,332.858065 206.950562,335.206926 L218,346.197723 L213.172892,351 L202.083591,339.971347 C199.787816,341.372011 197.167696,342.125522 194.319268,342.156167 C190.44526,342.156167 186.821306,340.658159 184.119648,337.937951 C181.416177,335.217742 179.955724,331.590797 180.001023,327.731309 C180.09887,319.707685 186.739767,313.100949 194.9897,313 Z M194.751887,318 L194.751887,318.001812 C189.494899,318.06523 185.060618,322.388518 185.000818,327.639519 C184.968199,330.14362 185.912319,332.49733 187.655588,334.263971 C189.398856,336.026988 191.736503,337 194.360467,337 L194.362279,337 C199.612018,336.938394 203.935759,332.615106 203.999184,327.362293 C204.031802,324.85638 203.08587,322.504482 201.34079,320.737841 C199.595709,318.9712 197.258062,318 194.751887,318 Z" id="Combined-Shape" transform="translate(199.000000, 332.000000) scale(-1, 1) translate(-199.000000, -332.000000) "></path>
        </g>
    </g>
</svg>