<svg width="43" height="50" xmlns="http://www.w3.org/2000/svg"><g fill="none" fill-rule="evenodd"><path d="M.31 5.217S10.153 0 21.423 0s21.335 5.135 21.335 5.135-.562 3.348-.388 10.55c.174 7.203 1.277 13.383-.466 17.246-1.743 3.864-5.75 6.96-8.878 9.47-3.127 2.51-11.59 7.423-11.59 7.423s-9.18-4.885-13.113-7.945c-3.932-3.06-6.591-6.117-7.79-9.813-1.2-3.696 0-10.846 0-17.044S.31 5.217.31 5.217z" fill="#F96302"/><path stroke="#FFF" d="M9.76 4.339h23.289v23.458H9.76z"/><path d="M5.821 31.79h.225c.149 0 .263-.046.342-.136.079-.09.119-.232.119-.426 0-.374-.154-.561-.461-.561H5.82v1.122zm-1.19-1.988h1.786c.226 0 .422.037.589.11a1.137 1.137 0 01.653.748c.051.172.077.36.077.562 0 .477-.127.835-.381 1.074-.254.238-.626.358-1.117.358H5.82v1.755h-1.19v-4.607zm4.892 1.949h.237c.171 0 .297-.051.378-.152a.615.615 0 00.122-.397c0-.193-.04-.331-.119-.413-.079-.081-.208-.122-.387-.122h-.23v1.084zm-1.19-1.949h1.863c.226 0 .42.03.58.09.16.06.29.146.39.255.1.11.173.24.217.39.045.151.068.315.068.491 0 .31-.062.56-.186.748-.124.19-.322.306-.595.349v.013c.286.025.482.127.589.303.106.176.16.42.16.729v.58c0 .065.002.126.006.184.004.058.01.111.02.158.008.048.019.084.031.11.017.026.034.05.052.074a.254.254 0 00.083.068v.065h-1.268a.803.803 0 01-.067-.213 2.409 2.409 0 01-.032-.245 4.738 4.738 0 01-.016-.42v-.31a2.25 2.25 0 00-.02-.322.514.514 0 00-.067-.203.256.256 0 00-.121-.104.5.5 0 00-.183-.029h-.314v1.846h-1.19v-4.607zm4.988 2.303c0 .31.005.567.013.771.009.205.027.367.055.487.027.12.068.205.121.252a.312.312 0 00.215.071c.09 0 .161-.024.214-.07.054-.048.094-.132.122-.253.028-.12.046-.282.054-.487.009-.204.013-.46.013-.77s-.004-.567-.013-.772a2.781 2.781 0 00-.054-.487c-.028-.12-.068-.204-.122-.251a.312.312 0 00-.214-.071.312.312 0 00-.215.07c-.053.048-.094.132-.121.252-.028.12-.046.283-.055.487-.008.205-.013.462-.013.771zm-1.229 0c0-.43.028-.796.083-1.1.056-.303.148-.55.276-.742.128-.191.296-.33.505-.419a1.98 1.98 0 01.769-.132c.303 0 .56.044.768.132.21.088.378.228.506.42.128.19.22.438.275.741.056.304.084.67.084 1.1 0 .43-.028.797-.084 1.1-.055.304-.147.55-.275.742a1.062 1.062 0 01-.506.41c-.209.082-.465.123-.768.123s-.56-.041-.769-.123a1.062 1.062 0 01-.505-.41 1.961 1.961 0 01-.276-.742 6.219 6.219 0 01-.083-1.1zm4.515-1.283v3.587h1.191v-3.587h.897v-1.02h-2.971v1.02h.883zm2.575-1.02v4.607h2.766v-.981h-1.575v-.916h1.422v-.942h-1.422v-.787h1.518v-.98h-2.709zm5.245 1.4v.258h1.153v-.29c0-.224-.027-.425-.08-.603a1.147 1.147 0 00-.256-.458 1.15 1.15 0 00-.458-.294 2 2 0 00-.685-.103 2.09 2.09 0 00-.775.126c-.209.084-.378.22-.506.41-.128.189-.218.436-.272.741-.053.306-.08.678-.08 1.116 0 .43.023.797.067 1.1.045.304.127.55.247.742a.99.99 0 00.5.41c.213.082.486.123.819.123.192 0 .379-.02.56-.062.182-.04.343-.12.484-.238.14-.119.254-.281.339-.488.085-.206.128-.47.128-.793v-.342H24.46c0 .22-.006.401-.016.545a1.69 1.69 0 01-.055.345.353.353 0 01-.109.184.283.283 0 01-.18.055.312.312 0 01-.214-.07c-.053-.048-.093-.132-.121-.253a2.781 2.781 0 01-.055-.487 19.067 19.067 0 01-.012-.77c0-.31.004-.567.012-.772.009-.204.027-.366.055-.487.028-.12.068-.204.121-.251a.312.312 0 01.215-.071c.115 0 .198.047.25.142.05.094.076.273.076.535zm2.435-.38v3.587h1.19v-3.587h.897v-1.02h-2.97v1.02h.883zm2.53-1.02v4.607h1.19v-4.607h-1.19zm3.023 2.303c0 .31.005.567.013.771.009.205.027.367.054.487.028.12.069.205.122.252a.312.312 0 00.215.071c.09 0 .16-.024.214-.07.054-.048.094-.132.122-.253.028-.12.046-.282.054-.487.009-.204.013-.46.013-.77s-.004-.567-.013-.772a2.781 2.781 0 00-.054-.487c-.028-.12-.068-.204-.122-.251a.312.312 0 00-.214-.071.312.312 0 00-.215.07c-.053.048-.094.132-.122.252-.027.12-.045.283-.054.487-.008.205-.013.462-.013.771zm-1.23 0c0-.43.029-.796.084-1.1.056-.303.147-.55.275-.742.129-.191.297-.33.506-.419a1.98 1.98 0 01.769-.132c.303 0 .559.044.768.132.21.088.378.228.506.42.128.19.22.438.275.741.056.304.083.67.083 1.1 0 .43-.027.797-.083 1.1-.055.304-.147.55-.275.742a1.062 1.062 0 01-.506.41c-.21.082-.465.123-.768.123s-.56-.041-.769-.123a1.062 1.062 0 01-.506-.41 1.961 1.961 0 01-.275-.742 6.219 6.219 0 01-.083-1.1zm3.914-2.303v4.607h1.114v-2.846h.013l.794 2.846h1.306v-4.607h-1.114v2.839H37.2l-.768-2.839h-1.332zm-20.928 8.172h1.499c.303 0 .548-.077.736-.232.188-.155.282-.391.282-.71 0-.318-.094-.555-.282-.71-.188-.154-.433-.232-.736-.232H14.17v1.884zm-.435-2.258h2.03c.205 0 .39.03.557.087a1.142 1.142 0 01.704.674c.064.164.096.349.096.555 0 .207-.032.392-.096.555a1.142 1.142 0 01-.704.674 1.683 1.683 0 01-.557.087H14.17v1.975h-.435v-4.607zm4.253 0v4.607h2.996v-.375h-2.56v-4.232h-.436zm4.304 2.8h1.799l-.884-2.361-.915 2.361zm.691-2.8h.487l1.793 4.607h-.468l-.557-1.433h-2.08l-.551 1.433h-.462l1.838-4.607zm2.908 0v4.607h.436v-3.897h.012l2.664 3.897h.487v-4.607h-.436v3.897h-.013l-2.663-3.897h-.487zM10.233 4.841h22.31v22.48h-22.31z" fill="#FFF"/><path d="M10.233 4.841H24.23c1.126 0 2.253-.002 3.378.002-.312.319-.63.635-.944.954.124.132.255.255.38.385.285-.198.608-.357.96-.383.316-.033.635.05.925.177.11.048.213.123.337.135.122-.007.214-.116.256-.224.035-.076.002-.165-.056-.22-.272-.276-.546-.547-.816-.824 1.298-.007 2.596 0 3.892-.002 0 1.275.002 2.552 0 3.829-.267-.264-.527-.534-.792-.798-.07-.073-.185-.111-.281-.066a.302.302 0 00-.153.149c-.035.137.026.271.08.394.164.35.237.743.188 1.128-.033.262-.127.52-.268.744-.037.054-.072.11-.105.167.136.118.25.26.389.376.31-.321.628-.635.942-.954 0 2.131.002 4.263 0 6.395-.061.02-.13.063-.192.033-.085-.055-.148-.135-.218-.203-.76-.76-1.511-1.528-2.273-2.285-.302.304-.6.611-.907.909.162.184.343.346.511.523.61.614 1.218 1.228 1.83 1.842.052.054.112.101.14.172.01.078-.044.144-.065.215-.03.083.035.182.122.184.077.014.143-.038.192-.09.286-.29.574-.578.86-.866V27.32H21.939l.816-.819c-.926-.93-1.849-1.86-2.772-2.792-.302.293-.593.597-.892.892-.064.066-.134.13-.164.22-.014.087.065.17.15.174.075-.01.138-.059.213-.075.065-.005.117.047.164.09.548.556 1.099 1.109 1.65 1.664.137.146.287.278.416.43.059.065.019.15-.014.216h-6.342c.5-.502.998-1.005 1.497-1.508.094-.09.19-.193.204-.33.021-.159-.138-.317-.295-.284-.131.026-.24.13-.375.13-.087-.007-.152-.07-.21-.127-1.193-1.2-2.383-2.401-3.574-3.6-.08-.08-.175-.158-.203-.274-.005-.137.091-.248.126-.373.045-.158-.103-.33-.262-.319a.446.446 0 00-.284.15c-.515.526-1.04 1.045-1.555 1.571-.003-5.837 0-11.677 0-17.515" fill="#F96302"/><path d="M26.325 6.137c.021-.024.059-.045.08-.01 1.633 1.643 3.265 3.289 4.896 4.934-.572.576-1.146 1.154-1.717 1.733a.45.45 0 01-.27.137c-.143.011-.285-.118-.274-.265.005-.144.127-.255.13-.401.004-.092-.066-.16-.125-.224-1.211-1.218-2.42-2.439-3.631-3.66-.068-.065-.143-.148-.246-.14-.153.002-.267.143-.422.127-.089.002-.162-.069-.206-.142-.061-.127-.005-.28.087-.375l1.698-1.714M28.677 6.616c.047-.087.136-.167.241-.153.118.01.202.106.28.184l1.405 1.419c.089.087.194.172.215.302.012.134-.11.255-.239.269-.107.002-.206-.057-.3-.109-.199-.118-.423-.212-.66-.2a.833.833 0 00-.35.096c-.128-.139-.276-.264-.397-.408.037-.106.086-.208.093-.321.017-.257-.086-.503-.215-.718-.066-.106-.117-.238-.073-.36M18.353 7.867c.253-.269.52-.521.773-.788.241.236.475.474.712.713.077.075.007.203-.08.233-.072.01-.136-.04-.201-.063a.905.905 0 00-.82-.003c-.066.029-.12.085-.19.097-.07-.057-.129-.127-.194-.189M18.193 8.018c.345.335.677.683 1.017 1.02.532.534 1.061 1.072 1.595 1.605-.304.312-.611.619-.918.926-.063.07-.19.101-.25.014-.075-.08.006-.18.03-.262.028-.062-.021-.116-.061-.158a704.126 704.126 0 01-1.837-1.851c-.056-.052-.103-.116-.17-.151-.094-.021-.167.064-.258.068-.07-.007-.136-.078-.127-.15a.242.242 0 01.077-.147c.3-.305.605-.604.902-.914M19.416 8.396c-.03-.078.024-.172.106-.184.06-.01.11.038.152.078.253.255.506.512.761.765.045.05.108.094.113.167.01.073-.061.144-.136.137-.099 0-.173-.078-.262-.11a.468.468 0 00-.42.004c-.068-.069-.136-.14-.206-.203a.633.633 0 00.033-.324c-.019-.122-.103-.217-.14-.33M23.903 8.58a.407.407 0 01.232-.123c.156-.023.32.13.29.29-.021.142-.138.256-.129.404.024.104.108.175.176.248 1.197 1.204 2.394 2.406 3.587 3.612.065.059.13.137.225.137.14 0 .248-.106.381-.13.155-.026.307.127.288.283a.455.455 0 01-.145.272c-.602.604-1.202 1.213-1.804 1.817-.077.078-.175.149-.29.149-.127.007-.248-.101-.265-.227-.016-.165.136-.288.131-.453-.007-.078-.06-.141-.112-.198l-3.153-3.175c.869 1.626 1.745 3.248 2.614 4.875.014.023.026.05.038.077a4.566 4.566 0 00-.185.187c-1.741-.864-3.48-1.738-5.218-2.604-.274-.137-.546-.297-.855-.335-.103-.014-.173.07-.248.125-.078.061-.18.1-.277.069-.114-.052-.194-.19-.159-.314a.517.517 0 01.143-.218c.562-.564 1.122-1.13 1.684-1.692.876.432 1.755.854 2.634 1.286.028.022.058.043.084.071l.04-.05-.033.005c-.462-.885-.946-1.758-1.408-2.643.581-.581 1.155-1.164 1.734-1.745M20.827 8.979c.042-.078.161-.087.217-.021l.717.722c-.267.272-.534.54-.805.81-.061-.071-.144-.128-.19-.21.077-.132.159-.267.18-.423.04-.215.005-.441-.087-.64-.025-.075-.082-.162-.032-.238M16.893 9.333c.047-.05.098-.101.166-.118.068-.014.153.028.162.104.017.083-.044.151-.06.231-.01.064.041.109.079.151l1.874 1.889c.042.04.087.09.148.104.075-.007.138-.057.21-.073.09-.01.171.087.143.172-.011.064-.06.11-.103.156l-.913.918c-.054.054-.124.11-.204.092a.178.178 0 01-.099-.1c-.023-.103.087-.188.061-.292-.023-.04-.056-.07-.086-.104-.286-.285-.57-.576-.858-.861-.1.103-.201.205-.304.306a4.345 4.345 0 01-.207-.21c.103-.101.204-.205.307-.307-.253-.25-.503-.505-.754-.757-.054-.052-.1-.109-.164-.146-.115-.038-.225.125-.335.035-.09-.064-.06-.191.012-.257.307-.314.618-.621.925-.933" fill="#FFF"/><path d="M15.694 10.558c.07-.045.175-.016.208.064.033.097-.054.18-.056.274-.002.05.037.085.068.118.649.654 1.295 1.308 1.944 1.96.117.127.267-.093.394.001.082.067.054.196-.016.258-.305.309-.612.613-.914.923-.05.047-.099.104-.166.125-.075.021-.167-.026-.176-.106-.014-.095.07-.168.065-.26a.27.27 0 00-.065-.104 662.719 662.719 0 01-1.84-1.853c-.058-.054-.107-.123-.184-.151-.085-.005-.155.06-.237.068-.07.003-.131-.061-.134-.13-.007-.073.045-.132.094-.181l.912-.92c.032-.031.063-.062.103-.086M14 12.246c.14-.137.276-.279.417-.418.246.241.487.491.733.734.042.048.094.09.117.151.028.116-.103.244-.218.192-.114-.052-.206-.144-.316-.206a.968.968 0 00-.62-.163c-.064-.066-.134-.127-.19-.198.018-.038.049-.064.077-.092M12.978 13.275c.263-.26.52-.521.78-.783.493.498.987.996 1.481 1.491.272.272.537.548.81.815.078.087.181.014.265-.017.085-.038.183.038.18.128 0 .061-.034.113-.074.156-.319.318-.633.637-.949.956-.044.044-.1.09-.166.085-.073.007-.143-.064-.136-.135.005-.076.063-.137.063-.213.005-.063-.05-.103-.087-.146-.747-.748-1.487-1.503-2.237-2.25.024-.03.045-.058.07-.087M30.56 13.044c.291.288.58.578.865.87.092.088.026.263-.096.282-.112.016-.199-.073-.286-.132-.232-.16-.506-.312-.796-.262a1.786 1.786 0 01-.216-.227c.18-.175.354-.354.53-.531M12.74 13.523c.086.033.14.132.21.194-.037.273.092.53.244.746.044.068.098.132.126.21.03.104-.07.212-.173.2-.059 0-.098-.05-.136-.085-.255-.26-.513-.514-.768-.774.168-.16.325-.333.496-.491M17.952 14.855a2.858 2.858 0 011.452-.069c.816.175 1.537.656 2.114 1.253.564.576 1.014 1.299 1.166 2.104.085.441.066.904-.06 1.336-.125.427-.35.821-.633 1.161-.122-.13-.255-.25-.373-.382 0-.064.04-.118.052-.18a.594.594 0 00-.157-.592c-1.157-1.169-2.32-2.337-3.477-3.506a.629.629 0 00-.39-.207c-.125-.017-.247.028-.364.07-.047.026-.077-.032-.108-.056-.093-.102-.197-.194-.29-.298l-.003-.028c.312-.269.678-.48 1.071-.606M21.11 14.725c.108.035.206.09.307.141.377.184.752.376 1.132.562a.428.428 0 01.09.068c.32.326.64.647.961.97.174.187.392.331.628.42a.757.757 0 00.52.006c.085-.029.176-.062.265-.033a.265.265 0 01.162.221c-.007.13-.09.239-.176.328a75.73 75.73 0 01-.867.872c-.077.07-.166.144-.274.155-.154.024-.307-.141-.26-.292.045-.154.106-.31.08-.47-.038-.27-.19-.508-.359-.713l-1.909-1.926c-.099-.104-.206-.198-.3-.31M28.255 15.367c.176-.177.354-.354.53-.534.077.064.145.14.218.21-.03.236.05.47.17.668.064.114.155.21.212.328.03.057.009.12-.012.177.295.201.555.456.761.746.237.338.403.74.394 1.16.002.398-.169.78-.42 1.083-.067-.071-.147-.135-.206-.215.012-.087.054-.172.033-.26-.023-.113-.11-.193-.187-.271-.619-.62-1.235-1.242-1.851-1.862-.06-.062-.134-.118-.22-.126a.548.548 0 00-.24.04c-.072-.068-.144-.141-.215-.212.312-.27.717-.441 1.132-.42.16-.005.314.033.468.068-.187-.196-.386-.38-.567-.58M15.996 16.752c.129-.36.332-.691.574-.986.12.122.246.24.363.365.023.076-.038.147-.05.222-.06.203.02.425.167.572 1.139 1.15 2.28 2.296 3.42 3.446.11.12.244.234.413.26.15.023.297-.029.436-.08l.38.38a3.196 3.196 0 01-.94.568c-.516.2-1.092.234-1.633.114-.823-.182-1.546-.68-2.125-1.287-.534-.564-.965-1.256-1.118-2.028a2.85 2.85 0 01.113-1.546M26.644 17.435a1.7 1.7 0 01.42-.97c.067.07.14.14.21.212-.026.085-.066.174-.042.264.014.08.068.144.124.2.618.622 1.232 1.245 1.85 1.866.073.07.143.155.247.184.093.026.19-.007.28-.036.071.071.144.142.212.217-.296.246-.663.418-1.052.418-.377.017-.748-.118-1.062-.316a2.725 2.725 0 01-.609-.529c.082.276.064.586-.065.845-.127.255-.324.463-.518.664-.07-.071-.143-.144-.216-.215.061-.1.101-.217.064-.333-.045-.118-.14-.203-.225-.293l-.525-.53c-.103-.098-.213-.209-.36-.218-.087-.01-.165.035-.237.078-.073-.07-.143-.144-.216-.215.281-.286.602-.58 1.014-.633.338-.056.678.09.916.324-.15-.302-.243-.642-.21-.984M14.295 18.258a.427.427 0 01.26-.127c.162-.01.31.16.265.319-.035.12-.122.226-.127.356.01.113.103.194.178.27l3.608 3.634c.056.055.12.109.2.116.135 0 .24-.102.37-.132.154-.03.309.11.302.266a.443.443 0 01-.136.279l-1.816 1.83c-.08.077-.178.146-.293.146a.263.263 0 01-.26-.274c.014-.142.131-.255.134-.401-.005-.088-.073-.154-.127-.215-.539-.545-1.08-1.086-1.616-1.629-.021-.016-.05-.064-.08-.03-.187.181-.368.372-.555.554a60.685 60.685 0 01-.38-.385c.18-.19.368-.377.558-.561l.002-.04c-.508-.503-1.007-1.013-1.513-1.52-.077-.074-.15-.166-.258-.192-.147-.01-.262.106-.4.132-.178.031-.34-.172-.28-.34.031-.118.125-.203.207-.283.586-.592 1.174-1.18 1.757-1.773M24.755 18.896c.281.264.546.547.823.819l1.579 1.593c.037.03.072.073.121.083.101.01.18-.09.282-.071.06.021.117.08.11.149 0 .092-.078.155-.134.217-.33.328-.656.66-.986.989-.073.08-.209.04-.253-.05-.066-.11.112-.229.019-.33-.68-.682-1.36-1.367-2.036-2.052-.05-.044-.091-.1-.15-.132-.1-.028-.18.057-.274.069-.073-.007-.143-.071-.138-.147-.007-.082.053-.146.105-.2.312-.312.623-.626.932-.937M22.666 20.999c.278-.276.55-.562.834-.833.25.255.503.507.754.762.084.083-.005.208-.091.246-.061.007-.118-.031-.171-.055-.216-.106-.464-.158-.7-.097-.15.031-.282.116-.413.194-.07-.073-.14-.146-.213-.217M21.527 22.148c.323-.33.651-.653.975-.982.524.522 1.042 1.053 1.57 1.575.402.404.8.812 1.206 1.213-.314.326-.637.642-.951.966a.47.47 0 01-.167.104c-.058-.022-.13-.043-.15-.109-.035-.11.08-.198.066-.307-.047-.092-.129-.158-.2-.231l-1.707-1.721c-.1-.094-.185-.208-.305-.278-.12-.024-.227.13-.342.047-.098-.064-.07-.206.005-.277M23.8 21.563c-.038-.097.051-.21.152-.194a.252.252 0 01.115.076c.246.25.494.496.738.746.08.083.182.153.215.271-.03.052-.063.123-.133.13-.115.012-.2-.08-.303-.118a.5.5 0 00-.452.003c-.075-.076-.147-.152-.222-.225a.496.496 0 00.037-.356c-.028-.12-.108-.22-.147-.333M25.306 22.18c.05-.076.169-.088.227-.017.253.257.511.512.762.772-.289.283-.565.58-.86.856-.068-.073-.14-.144-.211-.217.25-.311.286-.762.117-1.121-.03-.085-.096-.189-.035-.274" fill="#FFF"/><path d="M10.233 23.119c.093-.038.182-.097.286-.095.124.024.201.135.288.217 1.178 1.183 2.352 2.368 3.528 3.55.065.074.15.147.161.25-.004.102-.058.192-.1.282-1.39-.003-2.776-.003-4.163-.003 0-1.4-.003-2.802 0-4.201" fill="#F96302"/><path d="M21.138 23.055c.417-.035.832.116 1.176.345.27.181.52.391.712.653.23.31.37.687.373 1.077.007.444-.166.892-.48 1.206a8.727 8.727 0 01-.214-.215c.043-.08.092-.165.078-.26-.024-.141-.12-.257-.216-.354l-1.581-1.593c-.108-.106-.23-.222-.389-.234-.087-.009-.164.036-.237.078-.068-.075-.161-.132-.203-.226.257-.267.609-.454.981-.477M30.607 25.987c0-.423.34-.736.744-.736.4 0 .74.313.74.736 0 .428-.34.74-.74.74a.735.735 0 01-.744-.74zm.744.617c.331 0 .593-.262.593-.617a.594.594 0 10-1.19 0c0 .355.262.617.597.617zm-.155-.19h-.128v-.85h.322c.2 0 .298.074.298.241 0 .153-.095.22-.219.235l.24.375h-.143l-.223-.37h-.147v.37zm.153-.478c.108 0 .205-.007.205-.138 0-.106-.095-.125-.184-.125h-.174v.263h.153z" fill="#FFF"/></g></svg>